PathFileType	4	(X/Y/Z)	RBDS015\RBDS015runT25.trc
DataRate	CameraRate	NumFrames	NumMarkers	Units	OrigDataRate	OrigDataStartFrame	OrigNumFrames
150.000000	150.000000	6	33	mm	150.000000	0	4500
Frame#	Time	L.ASIS			L.Heel.Bottom			L.Heel.Lateral			L.Heel.Top			L.Iliac.Crest			L.MT1			L.MT5			L.PSIS			L.Shank.Bottom.Lateral			L.Shank.Bottom.Medial			L.Shank.Top.Lateral			L.Shank.Top.Medial			L.Thigh.Bottom.Lateral			L.Thigh.Bottom.Medial			L.Thigh.Top.Lateral			L.Thigh.Top.Medial			R.ASIS			R.ASY			R.Heel.Bottom			R.Heel.Lateral			R.Heel.Top			R.Iliac.Crest			R.MT1			R.MT5			R.PSIS			R.Shank.Bottom.Lateral			R.Shank.Bottom.Medial			R.Shank.Top.Lateral			R.Shank.Top.Medial			R.Thigh.Bottom.Lateral			R.Thigh.Bottom.Medial			R.Thigh.Top.Lateral			R.Thigh.Top.Medial			
		X1	Y1	Z1	X2	Y2	Z2	X3	Y3	Z3	X4	Y4	Z4	X5	Y5	Z5	X6	Y6	Z6	X7	Y7	Z7	X8	Y8	Z8	X9	Y9	Z9	X10	Y10	Z10	X11	Y11	Z11	X12	Y12	Z12	X13	Y13	Z13	X14	Y14	Z14	X15	Y15	Z15	X16	Y16	Z16	X17	Y17	Z17	X18	Y18	Z18	X19	Y19	Z19	X20	Y20	Z20	X21	Y21	Z21	X22	Y22	Z22	X23	Y23	Z23	X24	Y24	Z24	X25	Y25	Z25	X26	Y26	Z26	X27	Y27	Z27	X28	Y28	Z28	X29	Y29	Z29	X30	Y30	Z30	X31	Y31	Z31	X32	Y32	Z32	X33	Y33	Z33	

1	0	2161.447181394842	987.4788524089396	918.5815463164539	1973.886146902799	34.57050886954491	1030.891423007888	1996.73842014541	53.69752484042912	989.2003610261337	1986.473608683636	75.53295687485557	1034.926963753596	2076.431034531606	1053.127438420214	881.6701561390422	2189.367870621493	44.95764294378008	1052.779954325308	2147.937525502603	39.94601245757272	944.1003642892489	1988.882431275396	1034.397403108063	1006.666155417049	2094.024879885813	177.3970710090076	960.4027440479945	2051.24500184573	197.1261687393838	980.315895089051	2122.10864083982	250.412710656569	939.641408439124	2079.988981952715	274.5435621395461	961.2370075372262	2198.858793556292	629.8813169618718	889.6096836890472	2142.123144364083	607.3700268780179	920.056244095537	2151.772861245291	728.5668294047713	872.9098345241154	2092.755727753964	705.041667814136	907.5181945459576	2184.430885846597	979.6526335536771	1149.843650214023	1736.543163830921	201.2915726411187	1159.692000841545	1638.596279984181	363.96598392997	1151.862109671967	1663.802133326231	342.2558641194561	1193.885044256643	1685.615134878959	366.0772479411001	1153.599809602445	2106.750157455435	1056.172863070193	1193.450059250221	1702.91912402856	163.7003366511985	1112.125255164176	1682.02386946779	197.0759980688415	1223.950048363533	1996.567526029306	1033.27011036579	1095.35917836532	1809.14349302123	342.3209322017958	1202.848349872315	1789.260038185472	388.8191395390386	1178.920223676013	1881.373813593766	379.4368011668439	1210.639601543241	1861.199704273595	423.4385512659629	1186.676362289998	2121.149734815282	625.5235131617261	1212.920384634728	2062.632372968761	614.4857268943739	1170.533166686647	2095.656514134606	732.3191725137432	1215.621454565695	2040.010301807408	722.277212117079	1175.4038705217	
2	0.006666666666666667	2160.213955901272	985.7817322509541	918.7858325661954	1957.470627461967	34.48168069130638	1031.16982578226	1980.10675204963	53.63933221150881	989.2380065687427	1969.855410879169	75.51181077126144	1034.949443102405	2075.861333438825	1053.483815365027	881.437606303688	2172.759974355047	44.76665516187339	1052.725208948256	2131.269735222406	39.81277522393868	944.0737270562473	1987.432479532034	1033.860638192935	1006.248000460849	2079.595168818454	176.5345802660424	960.4680153521808	2037.024489625044	197.0375688915946	979.9774010397758	2109.102824416019	248.9504804421798	939.7684766177223	2067.174488578009	273.8339129312974	960.866272390449	2192.320039678857	627.1335343995758	889.4255198940845	2134.759416828633	605.4200295292683	918.8914428930607	2147.004365199602	726.6535383890366	872.7608237603753	2087.323466098751	704.0536264393069	906.8059950330768	2182.150733688964	977.4496018742618	1150.165565832673	1748.959590001231	199.5132433051963	1158.724289430854	1647.470528801472	360.064714770427	1151.37923951273	1673.367313450015	338.9237648169257	1193.213871491829	1694.435507787657	363.2459262214075	1152.845380912923	2104.801833775867	1057.159833144213	1193.622009545838	1716.021903316196	161.106501066092	1111.344418944688	1694.938937634261	194.1437065080229	1223.195979076552	1994.959035292503	1032.549843158864	1095.084082776643	1819.409251719405	340.4474830400395	1202.107195542802	1799.214621851435	387.0806050299541	1178.640499925742	1891.510670722878	377.8825107755027	1210.176710152903	1871.039561851147	422.0134059906101	1186.626615853523	2127.87435387723	625.2886907484286	1214.546820779693	2069.187510586683	612.3553056209557	1173.195281787416	2099.825065378051	731.4052130452578	1216.829110346028	2043.931159092748	719.4803292969818	1177.780265584232	
3	0.01333333333333333	2159.020751549839	984.3043476463184	918.9613340975586	1941.021727528583	34.45050571844875	1031.432328014818	1963.456435940915	53.63157342003391	989.2739338966087	1953.220911490922	75.54239123437894	1034.968425109597	2075.37881271646	1053.939345302358	881.2149087765522	2156.116064133163	44.58142442764115	1052.67693226458	2114.56799351207	39.69134373725961	944.0484228700334	1986.01549715055	1033.459914591285	1005.83526436003	2065.072355671045	175.7564458870127	960.5321770006518	2022.715637795342	197.007203395993	979.6716592133374	2095.955132688557	247.5913291139215	939.8963273518186	2054.225282071411	273.2017094339926	960.5370502584752	2185.63993397593	624.5140192787622	889.2580255519944	2127.277992282524	603.6337528425477	917.7954962634084	2142.134922658806	724.8665024064245	872.6258507808965	2081.804447097515	703.2242708596438	906.1393553346649	2179.938676476248	975.6054834820357	1150.414989371367	1761.647075175774	197.6089543831996	1157.702522217515	1656.467704855343	355.8321571182291	1150.807688474502	1683.048828242828	335.2935358906655	1192.4646812274	1703.354677471059	360.1370245344738	1152.025221967708	2102.901148776722	1058.232694455706	1193.780878504045	1729.440861782492	158.3655874478948	1110.45683227994	1708.100844852716	190.9944948637458	1222.341002030299	1993.374849871152	1031.994198367746	1094.807790418439	1829.740291985975	338.4722525737196	1201.310465047312	1809.188734940439	385.1975989273901	1178.282678894753	1901.651532720885	376.3102511007891	1209.662436298253	1880.837630091531	420.5305857398902	1186.505340350127	2134.525911706269	625.2867636425946	1216.121131198528	2075.681909329618	610.4829549947739	1175.793453739583	2103.957067746854	730.708876793161	1218.011424697862	2047.813028209975	716.9312440836168	1180.12513414577	
4	0.02	2157.901816864586	983.2404823120357	919.0767832096303	1924.497210675273	34.52303210348284	1031.665220092728	1946.760040819697	53.71429359308123	989.3064773265495	1936.540723204292	75.66801586745895	1034.979927775601	2075.049179289947	1054.576244757834	881.0135782396716	2139.396211812374	44.40842026944442	1052.646830797523	2097.800630451152	39.59087497230591	944.0294394153964	1984.661491025574	1033.317686815033	1005.428795007972	2050.362362471561	175.1347503169714	960.5986655415461	2008.226009171218	197.0858919052769	979.4263880092859	2082.530318047774	246.4233745012673	940.0297307781891	2041.008121641862	272.714108798168	960.2826725446341	2178.67585643231	622.1392433293574	889.1299402210251	2119.558125053509	602.1636280327567	916.8403018522262	2137.063131465308	723.3211890110349	872.5229335872468	2076.111102957648	702.7023835334871	905.566940464098	2177.85257067332	974.4279528998126	1150.528756633408	1774.841447502556	195.4578685493234	1156.567976830699	1665.683964398611	350.9723499034597	1150.059796396675	1692.939744268596	331.0984274009763	1191.559586923519	1712.448947036934	356.502484922394	1151.072955486966	2101.07918671157	1059.469915644211	1193.910278709767	1743.451072907032	155.3389108287798	1109.367174786126	1721.718773000531	187.4330446362181	1221.293562044442	1991.835748093651	1031.75217121045	1094.527025098265	1840.186116228499	336.3056300929032	1200.404455710847	1819.192903292228	383.0434905315914	1177.770705546519	1911.795425437436	374.7065201755693	1209.046974717327	1890.553738984219	418.9408322499104	1186.242236752158	2141.042710372311	625.7312022394244	1217.595269964888	2082.066007924032	609.1050303576662	1178.266851745144	2108.021590236448	730.4294346393925	1219.148486004637	2051.626308649005	714.8562751204922	1182.410473843481	
5	0.02666666666666667	2156.886429424269	982.741440664906	919.1065231888805	1907.875417199924	34.74469655267929	1031.855958341704	1930.008013645393	53.92638326598312	989.3313422985061	1919.803930359422	75.9314887402072	1034.977457601085	2074.916946981941	1055.459187530219	880.8455460218162	2122.578268478326	44.25439295990085	1052.645765220405	2080.955607181662	39.51885578988959	944.0218538466386	1983.398981734134	1033.53455729817	1005.027935029099	2035.403127169582	174.7318752649481	960.6702635827116	1993.49281799081	197.3185001871528	979.2607249009488	2068.733264439392	245.5225288281693	940.1730816585612	2027.426588133371	272.4298004107847	960.1262525717149	2171.314202283908	620.1099033527564	889.0646361888364	2111.505533322834	601.1408812866337	916.0909803424233	2131.709839597127	722.1161663769183	872.469914769403	2070.177164617325	702.6146994234973	905.1329572857845	2175.93764499547	974.1342732180889	1150.465936011116	1788.716388183149	192.9652844434026	1155.273320539411	1675.193914296018	345.2546446707804	1149.059984064698	1703.110167336216	326.130424337441	1190.432281209051	1721.776431679678	352.1458088625325	1149.930429797494	2099.34891960541	1060.932031694924	1193.993032156387	1758.260488076373	151.920352230075	1108.005678593156	1735.94777805579	183.3119049270212	1219.984028344525	1990.362909348645	1031.945863616033	1094.238853696238	1850.777445966643	333.8773280290425	1199.345146064442	1829.228734998977	380.5174421285059	1177.040502551294	1921.931489390482	373.0603927239597	1208.289523099508	1900.148245647182	417.2035999936286	1185.77768188801	2147.36553052987	626.7886888405935	1218.926084510567	2088.291446588563	608.4107273788699	1180.557330471594	2111.985698715473	730.7247174378414	1220.221931514482	2055.343297419548	713.4376840808675	1184.605469088073	
6	0.03333333333333333	2155.997827140881	982.9054189572532	919.033526436654	1891.154546406624	35.16621710231225	1031.993015291856	1913.207553159737	54.30994478829285	989.3404665738947	1903.018108629547	76.38042233777605	1034.950593989552	2075.00258187217	1056.63353459539	880.7226394141745	2105.655356014404	44.12578594886476	1052.682667010042	2064.037632924947	39.48064179477851	944.0302323968974	1982.255151797555	1034.185702478462	1004.629336590888	2020.168194352393	174.6019471827881	960.7475361341545	1978.486337710778	197.7465173115471	979.1822541680093	2054.515017508937	244.9531208243695	940.3288992348306	2013.426804196902	272.4007528625247	960.0773563517073	2163.477025950139	618.5096073645254	889.0848710027227	2103.058032249218	600.6728202754318	915.6014321725875	2126.023793560385	721.3313889119493	872.4834824211704	2063.962813923485	703.0629393451721	904.8741467366797	2174.22380329518	974.8319163183115	1150.213863644698	1803.376572730504	190.0678187023125	1153.784656829044	1685.054695156845	338.5258289743747	1147.747404841807	1713.61084030504	320.2512800450609	1189.030346807173	1731.381121081822	346.9313911018971	1148.549185389223	2097.703667781185	1062.661365514319	1194.01202270385	1774.003321627767	148.0440288244799	1106.33403658733	1750.886041696335	178.5419601572092	1218.369528152348	1988.978111796694	1032.664835353301	1093.940148758613	1861.528921182964	331.138937606472	1198.099886796637	1839.293561374919	377.5481221766649	1176.042594596493	1932.042613311091	371.3621076131669	1207.359946745722	1909.587911014482	415.2865620016968	1185.065027413365	2153.439240416755	628.5677262727436	1220.077327704583	2094.312445563696	608.5302108830563	1182.610599860771	2115.814799074972	731.7010079896608	1221.215186772478	2058.939151426471	712.8026354054052	1186.675550100241	
